# This file uses centimeters as units for non-parametric coordinates.

mtllib waterFall.mtl
g default
v -2.211534 -11.885526 6.525259
v -1.555158 -11.983070 7.273265
v -0.710470 -12.035564 7.805564
v 0.273183 -12.055816 7.990423
v 1.268873 -12.061088 7.875259
v 2.224262 -12.063274 7.573868
v 3.161852 -12.064357 7.223906
v -2.390231 -9.934512 6.933689
v -1.606456 -10.001758 7.554072
v -0.695315 -10.040771 7.964104
v 0.297913 -10.056764 8.063171
v 1.276497 -10.060527 7.867012
v 2.208391 -10.062607 7.510467
v 3.132628 -10.063772 7.135705
v -2.459206 -7.958817 7.237147
v -1.607364 -8.010803 7.756102
v -0.668128 -8.040873 8.089513
v 0.326478 -8.053361 8.128139
v 1.288635 -8.055893 7.872579
v 2.194723 -8.056896 7.459521
v 3.099707 -8.057894 7.045754
v -2.533421 -5.990463 7.561220
v -1.608857 -6.020259 7.943191
v -0.641379 -6.037410 8.185272
v 0.353288 -6.046018 8.185793
v 1.303262 -6.047233 7.893612
v 2.181429 -6.045767 7.427142
v 3.063165 -6.045161 6.967271
v -2.569748 -4.014242 7.829642
v -1.597359 -4.022639 8.043543
v -0.620772 -4.029323 8.224605
v 0.370285 -4.033387 8.225703
v 1.308786 -4.031551 7.912269
v 2.162558 -4.029392 7.406218
v 3.037996 -4.027381 6.935915
v -2.589893 -2.024584 8.041209
v -1.600151 -2.017614 8.129890
v -0.618363 -2.015774 8.272479
v 0.368733 -2.011425 8.254827
v 1.285321 -2.006467 7.885321
v 2.121064 -2.011706 7.354212
v 3.036368 -2.007158 6.972113
v -2.611368 -0.026892 8.246630
v -1.618791 -0.005926 8.233689
v -0.635581 0.007102 8.313996
v 0.337786 0.022423 8.211808
v 1.193512 0.014771 7.731361
v 2.082849 0.013559 7.297915
v 3.076544 0.000822 7.219437
v -2.631750 1.977374 8.441159
v -1.648132 2.022569 8.299392
v -0.673644 2.051896 8.246977
v 0.267269 2.057605 8.062458
v 1.141813 2.050709 7.634718
v 2.132510 2.014561 7.609678
v 3.082374 1.905076 7.877880
v -2.770828 3.836098 7.880174
v -1.770694 3.953615 7.878439
v -0.775213 4.129498 7.925558
v 0.239282 4.199883 7.903273
v 1.250386 4.091928 7.760569
v 2.248791 3.931382 7.639844
v 3.232007 3.726297 7.499280
v -2.733773 3.956507 5.946298
v -1.809783 4.332641 5.944674
v -0.863544 4.587945 5.945708
v 0.099338 4.588684 5.892007
v 1.080602 4.515727 5.816085
v 2.029498 4.219726 5.693990
v 2.856094 3.670906 5.562611
v -2.652929 3.684379 3.970815
v -1.863801 4.296435 3.932962
v -0.996651 4.795350 3.867177
v 0.003502 4.791318 3.848216
v 0.997779 4.791011 3.832492
v 1.607288 3.988852 3.754738
v 2.134192 3.129935 3.787758
v -2.604697 -1.027886 8.137818
v -1.611176 -1.012964 8.181427
v -0.625875 -1.006492 8.301459
v 0.362258 -0.997608 8.249453
v 1.251193 -0.996619 7.818819
v 2.096648 -1.003148 7.305810
v 3.057362 -0.999652 7.051428
v -2.625136 0.967397 8.363957
v -1.639120 1.001115 8.280240
v -0.654341 1.027249 8.301958
v 0.310512 1.042653 8.141583
v 1.151005 1.025047 7.634176
v 2.111112 1.023276 7.382198
v 3.095945 0.965675 7.509542
v -2.684145 2.966408 8.361343
v -1.692667 3.019098 8.241104
v -0.713028 3.075365 8.141002
v 0.249241 3.093222 7.993674
v 1.187877 3.058702 7.765543
v 2.152352 2.971512 7.924017
v 3.136054 2.890994 8.056785
v -2.796302 4.106959 6.927849
v -1.808545 4.313666 6.960974
v -0.815127 4.478857 6.975407
v 0.177317 4.460663 6.919870
v 1.174659 4.360102 6.824672
v 2.159769 4.162139 6.685545
v 3.086153 3.807279 6.518245
v -2.676285 3.793689 4.965192
v -1.809257 4.291029 4.937018
v -0.917316 4.696512 4.911214
v 0.045247 4.705512 4.868791
v 1.025050 4.680924 4.828920
v 1.882977 4.180139 4.702445
v 2.553451 3.444548 4.635900
v -2.580326 -3.020286 7.937666
v -1.596683 -3.019507 8.081311
v -0.618011 -3.022265 8.245324
v 0.373378 -3.023727 8.244041
v 1.306057 -3.021598 7.909390
v 2.149112 -3.022839 7.386271
v 3.035944 -3.019224 6.940709
v -2.556502 -5.004015 7.704535
v -1.604580 -5.021998 8.004181
v -0.631412 -5.033333 8.209886
v 0.361580 -5.040329 8.208068
v 1.307864 -5.040899 7.904644
v 2.173743 -5.040306 7.414843
v 3.049204 -5.039446 6.942388
v -2.497755 -6.974069 7.398969
v -1.610010 -7.015557 7.855780
v -0.656076 -7.039159 8.144785
v 0.338899 -7.050337 8.160360
v 1.295298 -7.052219 7.883851
v 2.188026 -7.052295 7.442726
v 3.081090 -7.053477 7.003151
v -2.427287 -8.948015 7.089204
v -1.609197 -9.006678 7.659003
v -0.683542 -9.041300 8.029345
v 0.310730 -9.055597 8.095668
v 1.280651 -9.058774 7.866823
v 2.199461 -9.060418 7.481446
v 3.115102 -9.061841 7.089609
v -2.325629 -10.917568 6.752333
v -1.593109 -10.995658 7.431866
v -0.705187 -11.039338 7.892203
v 0.285001 -11.057032 8.030122
v 1.272207 -11.061572 7.872745
v 2.215824 -11.063982 7.543918
v 3.146453 -11.065236 7.181249
vt 0.100000 0.000000
vt 0.150000 0.000000
vt 0.200000 0.000000
vt 0.250000 0.000000
vt 0.300000 0.000000
vt 0.350000 0.000000
vt 0.400000 0.000000
vt 0.100000 0.100000
vt 0.150000 0.100000
vt 0.200000 0.100000
vt 0.250000 0.100000
vt 0.300000 0.100000
vt 0.350000 0.100000
vt 0.400000 0.100000
vt 0.100000 0.200000
vt 0.150000 0.200000
vt 0.200000 0.200000
vt 0.250000 0.200000
vt 0.300000 0.200000
vt 0.350000 0.200000
vt 0.400000 0.200000
vt 0.100000 0.300000
vt 0.150000 0.300000
vt 0.200000 0.300000
vt 0.250000 0.300000
vt 0.300000 0.300000
vt 0.350000 0.300000
vt 0.400000 0.300000
vt 0.100000 0.400000
vt 0.150000 0.400000
vt 0.200000 0.400000
vt 0.250000 0.400000
vt 0.300000 0.400000
vt 0.350000 0.400000
vt 0.400000 0.400000
vt 0.100000 0.500000
vt 0.150000 0.500000
vt 0.200000 0.500000
vt 0.250000 0.500000
vt 0.300000 0.500000
vt 0.350000 0.500000
vt 0.400000 0.500000
vt 0.100000 0.600000
vt 0.150000 0.600000
vt 0.200000 0.600000
vt 0.250000 0.600000
vt 0.300000 0.600000
vt 0.350000 0.600000
vt 0.400000 0.600000
vt 0.100000 0.700000
vt 0.150000 0.700000
vt 0.200000 0.700000
vt 0.250000 0.700000
vt 0.300000 0.700000
vt 0.350000 0.700000
vt 0.400000 0.700000
vt 0.100000 0.800000
vt 0.150000 0.800000
vt 0.200000 0.800000
vt 0.250000 0.800000
vt 0.300000 0.800000
vt 0.350000 0.800000
vt 0.400000 0.800000
vt 0.100000 0.900000
vt 0.150000 0.900000
vt 0.200000 0.900000
vt 0.250000 0.900000
vt 0.300000 0.900000
vt 0.350000 0.900000
vt 0.400000 0.900000
vt 0.100000 1.000000
vt 0.150000 1.000000
vt 0.200000 1.000000
vt 0.250000 1.000000
vt 0.300000 1.000000
vt 0.350000 1.000000
vt 0.400000 1.000000
vt 0.100000 0.550000
vt 0.150000 0.550000
vt 0.200000 0.550000
vt 0.250000 0.550000
vt 0.300000 0.550000
vt 0.350000 0.550000
vt 0.400000 0.550000
vt 0.100000 0.650000
vt 0.150000 0.650000
vt 0.200000 0.650000
vt 0.250000 0.650000
vt 0.300000 0.650000
vt 0.350000 0.650000
vt 0.400000 0.650000
vt 0.100000 0.750000
vt 0.150000 0.750000
vt 0.200000 0.750000
vt 0.250000 0.750000
vt 0.300000 0.750000
vt 0.350000 0.750000
vt 0.400000 0.750000
vt 0.100000 0.850000
vt 0.150000 0.850000
vt 0.200000 0.850000
vt 0.250000 0.850000
vt 0.300000 0.850000
vt 0.350000 0.850000
vt 0.400000 0.850000
vt 0.100000 0.950000
vt 0.150000 0.950000
vt 0.200000 0.950000
vt 0.250000 0.950000
vt 0.300000 0.950000
vt 0.350000 0.950000
vt 0.400000 0.950000
vt 0.100000 0.450000
vt 0.150000 0.450000
vt 0.200000 0.450000
vt 0.250000 0.450000
vt 0.300000 0.450000
vt 0.350000 0.450000
vt 0.400000 0.450000
vt 0.100000 0.350000
vt 0.150000 0.350000
vt 0.200000 0.350000
vt 0.250000 0.350000
vt 0.300000 0.350000
vt 0.350000 0.350000
vt 0.400000 0.350000
vt 0.100000 0.250000
vt 0.150000 0.250000
vt 0.200000 0.250000
vt 0.250000 0.250000
vt 0.300000 0.250000
vt 0.350000 0.250000
vt 0.400000 0.250000
vt 0.100000 0.150000
vt 0.150000 0.150000
vt 0.200000 0.150000
vt 0.250000 0.150000
vt 0.300000 0.150000
vt 0.350000 0.150000
vt 0.400000 0.150000
vt 0.100000 0.050000
vt 0.150000 0.050000
vt 0.200000 0.050000
vt 0.250000 0.050000
vt 0.300000 0.050000
vt 0.350000 0.050000
vt 0.400000 0.050000
vn -0.684655 -0.164385 0.710088
vn -0.582161 -0.134163 0.801928
vn -0.524630 -0.106132 0.844689
vn -0.625647 -0.128265 0.769490
vn -0.309206 -0.079778 0.947643
vn -0.261809 -0.066599 0.962819
vn 0.007873 -0.036959 0.999286
vn 0.047267 -0.033081 0.998334
vn 0.243772 0.000169 0.969833
vn 0.277424 0.000218 0.960748
vn 0.345973 0.028461 0.937813
vn 0.367288 0.028398 0.929674
vn 0.362699 0.039357 0.931075
vn 0.376784 0.040093 0.925433
vn -0.573372 -0.113498 0.811396
vn -0.476701 -0.094107 0.874014
vn -0.429064 -0.094839 0.898281
vn -0.519513 -0.117459 0.846351
vn -0.223877 -0.060713 0.972724
vn -0.189130 -0.058393 0.980214
vn 0.080599 -0.033348 0.996189
vn 0.108713 -0.033701 0.993502
vn 0.308362 -0.004465 0.951259
vn 0.336375 -0.008906 0.941686
vn 0.390508 0.023702 0.920294
vn 0.415792 0.018855 0.909264
vn 0.394433 0.036823 0.918186
vn 0.416558 0.033052 0.908508
vn -0.456044 -0.122541 0.881480
vn -0.374800 -0.094552 0.922272
vn -0.314799 -0.080154 0.945768
vn -0.381841 -0.110223 0.917632
vn -0.155640 -0.052373 0.986425
vn -0.125703 -0.039154 0.991295
vn 0.130572 -0.030176 0.990979
vn 0.146345 -0.023684 0.988950
vn 0.360968 -0.009695 0.932528
vn 0.382467 -0.008552 0.923930
vn 0.441474 0.016294 0.897126
vn 0.464393 0.013319 0.885529
vn 0.440273 0.030186 0.897357
vn 0.460239 0.024827 0.887448
vn -0.300496 -0.090044 0.949523
vn -0.255465 -0.061231 0.964878
vn -0.201635 -0.051449 0.978109
vn -0.219102 -0.076521 0.972697
vn -0.105315 -0.026189 0.994094
vn -0.092170 -0.022217 0.995495
vn 0.154757 -0.017844 0.987791
vn 0.162159 -0.014216 0.986662
vn 0.400398 -0.006729 0.916317
vn 0.416907 -0.000970 0.908949
vn 0.481178 0.009369 0.876573
vn 0.488876 0.009709 0.872299
vn 0.471314 0.016590 0.881809
vn 0.467613 0.011023 0.883865
vn -0.148152 -0.074372 0.986164
vn -0.156102 -0.053623 0.986284
vn -0.117200 -0.057231 0.991458
vn -0.090982 -0.075364 0.992997
vn -0.079814 -0.026085 0.996468
vn -0.060376 -0.027198 0.997805
vn 0.176341 -0.008794 0.984290
vn 0.205022 0.005340 0.978743
vn 0.435917 0.013467 0.899886
vn 0.456325 0.037831 0.889009
vn 0.482711 0.016572 0.875623
vn 0.451920 0.023142 0.891758
vn 0.439385 0.008113 0.898262
vn 0.370143 -0.003931 0.928966
vn -0.039865 -0.077291 0.996211
vn -0.078109 -0.057121 0.995307
vn -0.029146 -0.052832 0.998178
vn 0.018185 -0.080386 0.996598
vn -0.029888 -0.017891 0.999393
vn 0.015126 0.001515 0.999884
vn 0.250694 0.029669 0.967612
vn 0.299802 0.055546 0.952383
vn 0.468573 0.058870 0.881461
vn 0.448855 0.057233 0.891770
vn 0.378017 0.007216 0.925771
vn 0.247663 -0.050016 0.967554
vn 0.245322 -0.046276 0.968337
vn 0.069609 -0.132220 0.988773
vn 0.083101 -0.063509 0.994515
vn 0.032988 -0.031893 0.998947
vn 0.082801 0.032914 0.996023
vn 0.121579 0.013375 0.992492
vn 0.068533 0.028190 0.997250
vn 0.109401 0.065141 0.991861
vn 0.329058 0.062734 0.942224
vn 0.293484 0.043526 0.954973
vn 0.371263 0.007444 0.928498
vn 0.226627 -0.080893 0.970617
vn 0.060426 -0.148750 0.987027
vn -0.094329 -0.214407 0.972179
vn -0.123625 -0.237526 0.963482
vn -0.217538 -0.260124 0.940751
vn 0.074922 0.253573 0.964411
vn 0.053353 0.219651 0.974119
vn -0.086327 0.702167 0.706760
vn -0.074325 0.737556 0.671183
vn 0.078238 0.150670 0.985483
vn -0.028961 0.654299 0.755681
vn 0.191403 0.061823 0.979563
vn 0.115669 0.628163 0.769436
vn 0.116712 -0.014322 0.993063
vn 0.163612 0.638028 0.752430
vn -0.061397 0.029773 0.997669
vn 0.166889 0.728847 0.664025
vn -0.085778 0.092811 0.991982
vn 0.206420 0.781786 0.588389
vn -0.228842 0.965232 0.126331
vn -0.210232 0.962488 0.171522
vn -0.320387 0.947135 -0.016936
vn -0.364705 0.926916 -0.088412
vn -0.094816 0.972459 0.212917
vn -0.134055 0.987472 0.083232
vn 0.057730 0.977836 0.201257
vn 0.042744 0.991628 0.121851
vn 0.171883 0.969681 0.173708
vn 0.204103 0.974738 0.090705
vn 0.301221 0.950296 0.078756
vn 0.433471 0.898659 -0.067193
vn 0.371302 0.928512 0.000179
vn 0.529953 0.827842 -0.183921
vn -0.498932 0.863844 -0.069578
vn -0.448615 0.893710 -0.005201
vn -0.505853 0.862361 0.021122
vn -0.557155 0.829694 -0.034443
vn -0.200595 0.976397 0.080064
vn -0.233304 0.968748 0.084242
vn 0.018081 0.994063 0.107298
vn 0.007583 0.995682 0.092519
vn 0.287140 0.957307 0.033373
vn 0.345684 0.938215 -0.015986
vn 0.613124 0.762885 -0.205147
vn 0.695110 0.657459 -0.290807
vn 0.672436 0.655055 -0.344575
vn 0.716926 0.547444 -0.431650
vn -0.715396 -0.188341 0.672857
vn -0.613665 -0.153045 0.774592
vn -0.335910 -0.089176 0.937663
vn -0.013244 -0.040686 0.999084
vn 0.226490 -0.001633 0.974012
vn 0.335673 0.027199 0.941586
vn 0.356183 0.038170 0.933636
s 1
g waterFall
usemtl initialShadingGroup
f 141/141/1 142/142/2 9/9/3 8/8/4
f 142/142/2 143/143/5 10/10/6 9/9/3
f 143/143/5 144/144/7 11/11/8 10/10/6
f 144/144/7 145/145/9 12/12/10 11/11/8
f 145/145/9 146/146/11 13/13/12 12/12/10
f 146/146/11 147/147/13 14/14/14 13/13/12
f 134/134/15 135/135/16 16/16/17 15/15/18
f 135/135/16 136/136/19 17/17/20 16/16/17
f 136/136/19 137/137/21 18/18/22 17/17/20
f 137/137/21 138/138/23 19/19/24 18/18/22
f 138/138/23 139/139/25 20/20/26 19/19/24
f 139/139/25 140/140/27 21/21/28 20/20/26
f 127/127/29 128/128/30 23/23/31 22/22/32
f 128/128/30 129/129/33 24/24/34 23/23/31
f 129/129/33 130/130/35 25/25/36 24/24/34
f 130/130/35 131/131/37 26/26/38 25/25/36
f 131/131/37 132/132/39 27/27/40 26/26/38
f 132/132/39 133/133/41 28/28/42 27/27/40
f 120/120/43 121/121/44 30/30/45 29/29/46
f 121/121/44 122/122/47 31/31/48 30/30/45
f 122/122/47 123/123/49 32/32/50 31/31/48
f 123/123/49 124/124/51 33/33/52 32/32/50
f 124/124/51 125/125/53 34/34/54 33/33/52
f 125/125/53 126/126/55 35/35/56 34/34/54
f 113/113/57 114/114/58 37/37/59 36/36/60
f 114/114/58 115/115/61 38/38/62 37/37/59
f 115/115/61 116/116/63 39/39/64 38/38/62
f 116/116/63 117/117/65 40/40/66 39/39/64
f 117/117/65 118/118/67 41/41/68 40/40/66
f 118/118/67 119/119/69 42/42/70 41/41/68
f 78/78/71 79/79/72 44/44/73 43/43/74
f 79/79/72 80/80/75 45/45/76 44/44/73
f 80/80/75 81/81/77 46/46/78 45/45/76
f 81/81/77 82/82/79 47/47/80 46/46/78
f 82/82/79 83/83/81 48/48/82 47/47/80
f 83/83/81 84/84/83 49/49/84 48/48/82
f 85/85/85 86/86/86 51/51/87 50/50/88
f 86/86/86 87/87/89 52/52/90 51/51/87
f 87/87/89 88/88/91 53/53/92 52/52/90
f 88/88/91 89/89/93 54/54/94 53/53/92
f 89/89/93 90/90/95 55/55/96 54/54/94
f 90/90/95 91/91/97 56/56/98 55/55/96
f 92/92/99 93/93/100 58/58/101 57/57/102
f 93/93/100 94/94/103 59/59/104 58/58/101
f 94/94/103 95/95/105 60/60/106 59/59/104
f 95/95/105 96/96/107 61/61/108 60/60/106
f 96/96/107 97/97/109 62/62/110 61/61/108
f 97/97/109 98/98/111 63/63/112 62/62/110
f 99/99/113 100/100/114 65/65/115 64/64/116
f 100/100/114 101/101/117 66/66/118 65/65/115
f 101/101/117 102/102/119 67/67/120 66/66/118
f 102/102/119 103/103/121 68/68/122 67/67/120
f 103/103/121 104/104/123 69/69/124 68/68/122
f 104/104/123 105/105/125 70/70/126 69/69/124
f 106/106/127 107/107/128 72/72/129 71/71/130
f 107/107/128 108/108/131 73/73/132 72/72/129
f 108/108/131 109/109/133 74/74/134 73/73/132
f 109/109/133 110/110/135 75/75/136 74/74/134
f 110/110/135 111/111/137 76/76/138 75/75/136
f 111/111/137 112/112/139 77/77/140 76/76/138
f 36/36/60 37/37/59 79/79/72 78/78/71
f 37/37/59 38/38/62 80/80/75 79/79/72
f 38/38/62 39/39/64 81/81/77 80/80/75
f 39/39/64 40/40/66 82/82/79 81/81/77
f 40/40/66 41/41/68 83/83/81 82/82/79
f 41/41/68 42/42/70 84/84/83 83/83/81
f 43/43/74 44/44/73 86/86/86 85/85/85
f 44/44/73 45/45/76 87/87/89 86/86/86
f 45/45/76 46/46/78 88/88/91 87/87/89
f 46/46/78 47/47/80 89/89/93 88/88/91
f 47/47/80 48/48/82 90/90/95 89/89/93
f 48/48/82 49/49/84 91/91/97 90/90/95
f 50/50/88 51/51/87 93/93/100 92/92/99
f 51/51/87 52/52/90 94/94/103 93/93/100
f 52/52/90 53/53/92 95/95/105 94/94/103
f 53/53/92 54/54/94 96/96/107 95/95/105
f 54/54/94 55/55/96 97/97/109 96/96/107
f 55/55/96 56/56/98 98/98/111 97/97/109
f 57/57/102 58/58/101 100/100/114 99/99/113
f 58/58/101 59/59/104 101/101/117 100/100/114
f 59/59/104 60/60/106 102/102/119 101/101/117
f 60/60/106 61/61/108 103/103/121 102/102/119
f 61/61/108 62/62/110 104/104/123 103/103/121
f 62/62/110 63/63/112 105/105/125 104/104/123
f 64/64/116 65/65/115 107/107/128 106/106/127
f 65/65/115 66/66/118 108/108/131 107/107/128
f 66/66/118 67/67/120 109/109/133 108/108/131
f 67/67/120 68/68/122 110/110/135 109/109/133
f 68/68/122 69/69/124 111/111/137 110/110/135
f 69/69/124 70/70/126 112/112/139 111/111/137
f 29/29/46 30/30/45 114/114/58 113/113/57
f 30/30/45 31/31/48 115/115/61 114/114/58
f 31/31/48 32/32/50 116/116/63 115/115/61
f 32/32/50 33/33/52 117/117/65 116/116/63
f 33/33/52 34/34/54 118/118/67 117/117/65
f 34/34/54 35/35/56 119/119/69 118/118/67
f 22/22/32 23/23/31 121/121/44 120/120/43
f 23/23/31 24/24/34 122/122/47 121/121/44
f 24/24/34 25/25/36 123/123/49 122/122/47
f 25/25/36 26/26/38 124/124/51 123/123/49
f 26/26/38 27/27/40 125/125/53 124/124/51
f 27/27/40 28/28/42 126/126/55 125/125/53
f 15/15/18 16/16/17 128/128/30 127/127/29
f 16/16/17 17/17/20 129/129/33 128/128/30
f 17/17/20 18/18/22 130/130/35 129/129/33
f 18/18/22 19/19/24 131/131/37 130/130/35
f 19/19/24 20/20/26 132/132/39 131/131/37
f 20/20/26 21/21/28 133/133/41 132/132/39
f 8/8/4 9/9/3 135/135/16 134/134/15
f 9/9/3 10/10/6 136/136/19 135/135/16
f 10/10/6 11/11/8 137/137/21 136/136/19
f 11/11/8 12/12/10 138/138/23 137/137/21
f 12/12/10 13/13/12 139/139/25 138/138/23
f 13/13/12 14/14/14 140/140/27 139/139/25
f 1/1/141 2/2/142 142/142/2 141/141/1
f 2/2/142 3/3/143 143/143/5 142/142/2
f 3/3/143 4/4/144 144/144/7 143/143/5
f 4/4/144 5/5/145 145/145/9 144/144/7
f 5/5/145 6/6/146 146/146/11 145/145/9
f 6/6/146 7/7/147 147/147/13 146/146/11
