# author: headus 3D tools
#  using: ply2obj v1.12
#   from: uvlayout v2.11.05
# 26 vertices
v -0.9372130 9.6328154 1.3292210
v 1.2245350 10.0453940 1.3473329
v -1.0349428 11.7991306 1.2128511
v 0.6383871 11.7396768 1.1592150
v -1.2164829 11.7330754 -0.8433810
v 0.8367730 11.7669364 -0.9374622
v -1.2453409 9.6876116 -0.7940320
v 1.2123552 9.6163484 -1.2123550
v 0.3719672 9.7147407 1.5290590
v -0.0139360 12.1555390 1.3368559
v -0.0139360 12.1555390 -1.3264582
v -0.0139360 9.4922238 -1.3264582
v -1.6134829 10.8287030 1.5929299
v -1.6134829 10.8287030 -1.4978286
v -0.0887410 10.8238822 -2.1247642
v 1.4768910 11.0284911 -1.9897250
v 1.4772752 10.8287030 1.5929299
v -0.0887410 10.8238822 2.0191020
v -1.6979100 12.1275302 -0.0006590
v -2.0065688 10.8250609 0.0504260
v -1.3117698 9.5225917 -0.0006590
v 0.0135470 9.0305577 -0.0307171
v 1.2931682 9.5225917 -0.0006590
v 2.2568260 10.8250609 0.0504260
v 1.2931682 12.1275302 -0.0006590
v -0.0241520 12.7248394 0.0044748
# 54 normals
vn -0.188702 -0.388055 0.902094
vn 0.027437 -0.367454 0.929622
vn -0.026888 0.051853 0.998199
vn -0.240219 0.025484 0.970335
vn -0.323720 0.862144 0.389611
vn 0.010590 0.900018 0.435573
vn -0.003937 0.999969 -0.004853
vn -0.378411 0.925136 -0.027223
vn -0.443509 -0.021119 -0.895898
vn -0.135476 -0.021821 -0.990447
vn -0.117042 -0.532778 -0.838033
vn -0.361106 -0.530458 -0.766801
vn -0.240127 -0.969877 0.039401
vn 0.022035 -0.998047 0.057956
vn 0.135232 -0.935390 0.326650
vn -0.165507 -0.939358 0.300220
vn 0.795550 -0.510377 0.326344
vn 0.866264 -0.497009 -0.049045
vn 0.994812 0.096777 0.030458
vn 0.867210 0.161265 0.470976
vn -0.995819 -0.068303 0.060154
vn -0.875053 -0.479827 0.062473
vn -0.837026 -0.490020 0.243118
vn -0.936245 -0.111182 0.333150
vn 0.319905 0.062962 0.945309
vn 0.272478 -0.322346 0.906427
vn 0.485015 0.874351 -0.006897
vn 0.445767 0.790972 0.419001
vn 0.203809 0.001801 -0.978942
vn 0.135232 -0.500366 -0.855124
vn 0.320454 -0.943722 0.080663
vn 0.360343 -0.873711 0.326680
vn -0.907770 0.416346 0.050815
vn -0.839987 0.397851 0.368705
vn -0.384606 0.558567 -0.734786
vn -0.112403 0.647073 -0.753983
vn 0.204084 0.682750 -0.701398
vn 0.709546 0.701215 0.068577
vn 0.649789 0.624123 0.433590
vn 0.009980 0.503174 0.864066
vn 0.312489 0.506379 0.803638
vn -0.247787 0.462949 0.850913
vn -0.948575 -0.056369 -0.311146
vn -0.849783 0.373405 -0.371849
vn -0.876762 -0.435665 -0.203351
vn -0.306049 -0.910212 -0.278765
vn 0.010468 -0.966886 -0.254654
vn 0.244827 -0.944302 -0.219709
vn 0.849356 -0.455564 -0.266435
vn 0.932399 0.085668 -0.351065
vn 0.666331 0.676891 -0.312489
vn -0.004608 0.882714 -0.469786
vn 0.436520 0.798938 -0.413508
vn -0.363944 0.818135 -0.445004
# 50 uv coords
vt 0.401022 0.853113
vt 0.462605 0.438069
vt 0.161601 0.848647
vt 0.675927 0.437362
vt 0.161093 0.612427
vt 0.684668 0.182021
vt 0.396235 0.625505
vt 0.420870 0.166741
vt 0.272146 0.844288
vt 0.270704 0.583571
vt 0.566531 0.131706
vt 0.546266 0.435843
vt 0.163147 0.711154
vt 0.272225 0.714203
vt 0.402911 0.711685
vt 0.411439 0.295682
vt 0.544799 0.301858
vt 0.677450 0.297343
vt 0.276663 0.441219
vt 0.967019 0.412250
vt 0.598978 0.399476
vt 0.530471 0.725478
vt 0.007966 0.729243
vt 0.963888 0.790012
vt 0.601216 0.758294
vt 0.276660 0.980634
vt 0.981993 0.399005
vt 0.576153 0.007966
vt 1.352294 0.409695
vt 0.289612 0.304894
vt 0.804564 0.311504
vt 1.033066 0.759697
vt 1.345599 0.750917
vt 0.588050 0.571672
vt 0.520787 0.895433
vt 0.412926 0.992034
vt 0.050453 0.871916
vt 0.122342 0.956392
vt 0.120372 0.475790
vt 0.021769 0.581085
vt 0.429818 0.487989
vt 0.525861 0.588842
vt 0.369725 0.459919
vt 0.457251 0.540614
vt 0.756673 0.452296
vt 0.722596 0.499050
vt 0.725227 0.081355
vt 0.786636 0.163572
vt 0.407075 0.030758
vt 0.295469 0.165384
# 24 polygons
s 1
g pCube3
f 1/1/1 9/36/2 18/26/3 13/9/4
s 2
f 3/3/5 10/37/6 26/23/7 19/13/8
s 3
f 14/10/9 15/19/10 12/41/11 7/7/12
s 4
f 21/15/13 22/22/14 9/35/15 1/1/16
s 5
f 2/2/17 23/16/18 24/17/19 17/12/20
s 6
f 20/14/21 21/15/22 1/1/23 13/9/24
s 1
f 17/12/25 18/34/3 9/44/2 2/2/26
s 2
f 25/18/27 26/31/7 10/45/6 4/4/28
s 3
f 12/49/11 15/28/10 16/11/29 8/8/30
s 4
f 9/43/15 22/30/14 23/16/31 2/2/32
s 6
f 19/13/33 20/14/21 13/9/24 3/3/34
s 3
f 5/5/35 11/39/36 15/19/10 14/10/9
f 16/11/29 15/28/10 11/47/36 6/6/37
s 5
f 17/12/20 24/17/19 25/18/38 4/4/39
s 1
f 10/46/40 18/34/3 17/12/25 4/4/41
f 13/9/4 18/26/3 10/38/40 3/3/42
s 6
f 14/10/43 20/14/21 19/13/33 5/5/44
f 7/7/45 21/15/22 20/14/21 14/10/43
s 4
f 7/7/46 12/42/47 22/22/14 21/15/13
f 23/16/31 22/30/14 12/50/47 8/8/48
s 5
f 24/17/19 23/16/18 8/8/49 16/11/50
f 25/18/38 24/17/19 16/11/50 6/6/51
s 2
f 11/48/52 26/31/7 25/18/27 6/6/53
f 19/13/8 26/23/7 11/40/52 5/5/54
# h3dt: 26 50 54 24
